<?xml version="1.0" encoding="UTF-8" standalone="no"?>
<svg width="8px" height="12px" viewBox="0 0 8 12" version="1.1" xmlns="http://www.w3.org/2000/svg" xmlns:xlink="http://www.w3.org/1999/xlink" xmlns:sketch="http://www.bohemiancoding.com/sketch/ns">
    <title>Untitled</title>
    <description>Created with Sketch (http://www.bohemiancoding.com/sketch)</description>
    <defs></defs>
    <g id="Page-1" stroke="none" stroke-width="1" fill="none" fill-rule="evenodd" sketch:type="MSPage">
        <path d="M2.30979668,0.327131864 C2.80101695,0.748802327 7.60570634,5.18503216 7.60570634,5.18503216 C7.86778458,5.41014378 8,5.70498205 8,5.99982033 C8,6.29465861 7.86801984,6.5903245 7.60570634,6.8148154 C7.60570634,6.8148154 2.80101695,11.2504245 2.30979668,11.6727157 C1.8181059,12.0943862 0.93400353,12.1235596 0.408906007,11.6727157 C-0.115485741,11.2229063 -0.15689128,10.5947456 0.409376524,10.0427256 L4.81647863,5.99961343 L0.409376524,1.9567082 C-0.15689128,1.40448128 -0.115015223,0.77652747 0.408906007,0.326511151 C0.934238789,-0.123298264 1.8181059,-0.0943316959 2.30979668,0.327131864 C2.30979668,0.327131864 1.8181059,-0.0943316959 2.30979668,0.327131864 L2.30979668,0.327131864 L2.30979668,0.327131864 Z" id="Shape" fill="#FFFFFF" sketch:type="MSShapeGroup"></path>
    </g>
</svg>