<?xml version="1.0" encoding="utf-8"?>
<!-- Generator: Adobe Illustrator 17.0.0, SVG Export Plug-In . SVG Version: 6.00 Build 0)  -->
<!DOCTYPE svg PUBLIC "-//W3C//DTD SVG 1.1//EN" "http://www.w3.org/Graphics/SVG/1.1/DTD/svg11.dtd">
<svg version="1.1" id="Calque_1" xmlns:sketch="http://www.bohemiancoding.com/sketch/ns"
	 xmlns="http://www.w3.org/2000/svg" xmlns:xlink="http://www.w3.org/1999/xlink" x="0px" y="0px" width="8px" height="12px"
	 viewBox="0 0 8 12" enable-background="new 0 0 8 12" xml:space="preserve">
<title>Untitled</title>
<description>Created with Sketch (http://www.bohemiancoding.com/sketch)</description>
<g id="Page-1" sketch:type="MSPage">
	<path id="Shape" sketch:type="MSShapeGroup" fill="#CCCCCC" d="M2.31,0.327c0.491,0.422,5.296,4.858,5.296,4.858
		C7.868,5.41,8,5.705,8,6S7.868,6.59,7.606,6.815c0,0-4.805,4.436-5.296,4.858c-0.492,0.422-1.376,0.451-1.901,0
		c-0.524-0.45-0.566-1.078,0-1.63L4.816,6L0.409,1.957c-0.566-0.552-0.524-1.18,0-1.63C0.934-0.123,1.818-0.094,2.31,0.327
		C2.31,0.327,1.818-0.094,2.31,0.327L2.31,0.327L2.31,0.327z"/>
</g>
</svg>
