<?xml version="1.0" encoding="UTF-8" standalone="no"?>
<svg width="130px" height="41px" viewBox="0 0 130 41" version="1.1" xmlns="http://www.w3.org/2000/svg" xmlns:xlink="http://www.w3.org/1999/xlink" xmlns:sketch="http://www.bohemiancoding.com/sketch/ns">
    <title>Untitled</title>
    <description>Created with Sketch (http://www.bohemiancoding.com/sketch)</description>
    <defs></defs>
    <g id="Page-1" stroke="none" stroke-width="1" fill="none" fill-rule="evenodd" sketch:type="MSPage">
        <g id="Cookening" sketch:type="MSLayerGroup" fill="#FFFFFF">
            <path d="M15.9953291,19.5664868 C14.9165512,19.5653714 13.3211702,16.5025197 13.3230152,15.0930427 C13.6460766,12.7181986 17.0872065,9.17889081 17.1279813,8.81657604 C17.1279813,8.69555659 17.0879445,8.61506285 16.9678343,8.61506285 C14.6497626,8.61190259 4.72286576,22.2508507 4.71640822,27.6866877 C4.71530121,28.6531702 5.75330436,29.0166004 7.11215492,29.0179016 C8.95070831,29.0203183 11.3488535,28.4183813 12.867851,27.8575277 C13.1086249,27.7372519 13.4281808,27.6565722 13.7082535,27.6578735 C14.2672918,27.6578735 14.9464403,28.182477 14.9458868,28.7459332 C14.9453333,28.9879721 14.7851864,29.2287097 14.465077,29.4296652 C12.3056762,30.63577 8.22617252,32.8048253 4.90939636,32.7999919 C1.35295329,32.796274 -0.00349874551,30.8211101 6.77525747e-06,27.8818803 C0.011445843,18.4594656 12.7826115,-0.0072478792 18.4571271,2.1341312e-06 C20.5357165,0.00241880524 21.4925391,1.49369078 22.3694728,3.66943837 C22.9272196,4.79728019 24.1255542,5.5237687 24.1237092,7.0131817 C24.1196502,10.1944504 18.6397832,14.0936563 16.6757691,18.9632485 C16.5154376,19.4058712 16.2754017,19.5664868 15.9953291,19.5664868 L15.9953291,19.5664868 Z" id="Shape" sketch:type="MSShapeGroup"></path>
            <path d="M27.5173987,14.2078433 C29.5189576,14.2102756 30.9294144,15.9141808 30.927784,17.2515601 C30.9272405,17.9808697 29.7865205,20.5328919 28.1742593,23.3262711 L28.2528796,23.3275808 C29.3512099,23.3287034 30.686126,22.7225045 31.9435085,21.2238463 C33.1222707,19.8076985 34.8118842,17.9451339 35.2836065,17.256986 C35.4008125,17.0945846 35.4799763,17.0141323 35.5979069,17.0141323 C35.9509739,17.0146936 36.185567,17.7846035 36.185567,17.7846035 C35.4776213,18.9597686 34.2983157,20.7811715 33.1588636,22.442044 C31.5473271,24.7899419 29.3878028,25.8414349 27.5826137,25.8388155 C27.2688569,25.8388155 26.9944101,25.8388155 26.71942,25.7566793 C24.361171,29.4007949 21.5319243,32.802431 19.5696756,32.7999987 C17.0583524,32.7962567 16.0794019,31.133139 16.0824815,28.7017953 C16.0895464,22.7037947 22.0264718,12.296446 25.0084304,12.3000009 C25.9109344,12.3011235 26.4985945,13.5580506 27.5173987,14.2078433 L27.5173987,14.2078433 Z M23.7318363,23.5479518 C23.5562074,23.11031 23.4514149,22.593147 23.4519023,22.0366825 C23.4523897,21.2012512 23.6291559,20.2464463 24.1237113,19.1333338 L24.0179441,19.1333338 C22.5048709,19.1314972 18.7682481,24.9738231 18.7628866,29.5484017 C18.7628866,29.9061551 18.9032598,30.0655648 19.1141444,30.0666667 C20.0645876,30.0668503 22.3904928,26.5697558 23.7318363,23.5479518 L23.7318363,23.5479518 Z" id="Shape" sketch:type="MSShapeGroup"></path>
            <path d="M40.9195383,14.2077263 C42.9212604,14.2101586 44.3317045,15.9141259 44.329893,17.2515541 C44.3293496,17.9808903 43.1886397,20.5328185 41.576393,23.3272351 L41.6550126,23.3272351 C42.7535142,23.3296675 44.0882372,22.7221368 45.3457896,21.2241724 C46.5245412,19.8079729 48.2141396,17.9453403 48.6856765,17.2571673 C48.8028814,17.0947599 48.8820445,17.0135563 48.999974,17.0143047 C49.3530379,17.0143047 49.5876289,17.784804 49.5876289,17.784804 C48.8798707,18.9592636 47.7003944,20.7814814 46.5609526,22.4424145 C44.9494305,24.7909593 42.7899257,25.8424907 40.9847528,25.8398713 C40.6711798,25.8387486 40.3965544,25.8387486 40.1213856,25.757545 C37.7631577,29.4017935 34.9341176,32.8024311 32.9717054,32.7999987 C30.4605858,32.7962566 29.4816441,31.1343879 29.4845425,28.7016457 C29.4916074,22.7041747 35.4284795,12.2956979 38.4105925,12.3000013 C39.3130884,12.3007498 39.9007433,13.5577227 40.9195383,14.2077263 L40.9195383,14.2077263 Z M37.1338981,23.5487253 C36.9581068,23.1110615 36.8536392,22.5925868 36.8541266,22.036829 C36.8546141,21.2013556 37.0313802,20.246319 37.5257732,19.1333341 L37.4200059,19.1333341 C35.9067703,19.1309465 32.1701475,24.9733828 32.1649485,29.5492937 C32.1649485,29.9061468 32.3053216,30.0655644 32.5163687,30.0666664 C33.466812,30.0677684 35.7927171,26.5693959 37.1338981,23.5487253 L37.1338981,23.5487253 Z" id="Shape" sketch:type="MSShapeGroup"></path>
            <path d="M49.0377995,22.2723334 C47.9048043,24.8155863 46.6921018,27.8366168 45.4408951,31.4923593 C45.2458551,32.0485123 44.9336832,32.2862081 44.5049191,32.2862081 C43.919979,32.2849232 41.5445935,31.089286 41.5463928,29.5788625 C41.5463928,29.3791614 41.5859765,29.1807451 41.6640645,28.9821452 C44.1263544,22.9424702 52.0116195,12.2968204 52.0197161,5.81607751 C52.0207957,4.82252757 51.8658793,3.9471831 51.4378349,3.19206312 C51.3214226,2.91288531 51.2048304,2.75411556 51.2048304,2.5949787 C51.2053702,2.4356583 51.3217825,2.27707209 51.6341343,2.11830233 C52.2969824,1.76129982 53.4276385,1.36538494 54.4802067,1.36666979 C55.9219553,1.36850527 57.2843563,2.12546074 57.2812976,4.74965868 C57.2773392,7.89073018 54.5448002,12.6178473 52.0843096,16.6307759 C54.0356091,14.4065309 56.3372249,12.5413074 58.0904257,12.54351 C59.6491262,12.5453455 60.3108947,13.5394461 60.3092754,14.7719766 C60.3051371,18.310615 54.416153,22.1998316 51.6859531,23.8660881 C50.6724289,24.3427644 50.5151734,25.2173747 50.5144537,25.7737113 C50.5121146,27.4041757 52.8858808,30.8257099 55.6916497,30.9079398 C55.7306937,31.0670766 55.730154,31.2667778 55.730154,31.4651941 C55.7290744,32.6178809 55.1027513,34.1677674 53.3878749,34.1666661 C49.9586617,34.1618938 48.2099591,29.8264699 48.2151769,25.4526843 C48.2169762,24.021921 49.9331122,23.1091326 49.9331122,23.1091326 C52.1949642,21.7198513 55.7848515,18.1068757 55.7859311,17.1524217 C55.7864708,16.9931013 55.7085628,16.9136246 55.5133429,16.9128904 C54.2274104,16.911055 51.339955,19.6909023 49.0377995,22.2723334 L49.0377995,22.2723334 Z" id="Shape" sketch:type="MSShapeGroup"></path>
            <path d="M59.9561678,27.205927 C59.8757393,27.7727989 59.8352489,28.3398578 59.8346968,28.8666932 C59.8334085,29.7583472 60.2315022,30.2851826 61.1084864,30.2864922 C63.8594375,30.2900468 67.0121633,27.3367004 69.687471,24.2185308 C70.8445748,22.8823595 74.7568627,17.9836883 75.4766707,16.972299 C75.5957491,16.809908 75.6769139,16.7287125 75.7959923,16.7287125 C76.1545159,16.7292738 76.3917526,17.4998828 76.3917526,17.4998828 C75.3143412,19.240535 72.9574348,22.6028523 70.6813251,25.7595617 C67.9259568,29.5656481 64.0953858,32.8026176 61.5838799,32.7999984 C60.0693568,32.7975663 56.2849815,30.4838684 56.2886625,27.4033031 C56.2958403,21.3248649 61.9676179,12.2945769 66.3126005,12.3000024 C67.6686591,12.3018733 67.9046074,14.4494385 69.0999929,15.262329 C69.8972847,15.7893515 71.4108875,15.9940241 71.4083109,18.0605808 C71.4059183,20.0060926 63.3869887,25.3863243 59.9561678,27.205927 L59.9561678,27.205927 Z M68.3505155,17.8412686 C68.237632,17.8042237 68.0879838,17.7666667 67.9761359,17.7666667 C65.3587588,18.3923329 62.8497774,21.3839221 61.6494845,24.6 C66.2148779,21.5358574 67.6385212,19.2455606 68.3505155,17.8412686 L68.3505155,17.8412686 Z" id="Shape" sketch:type="MSShapeGroup"></path>
            <path d="M84.5272332,34.0713608 C84.5259709,34.8632311 83.2370157,35.5346114 81.7915393,35.5333315 C79.9560223,35.5309546 77.9257554,34.4595254 77.9291816,31.2512713 C77.9336897,27.1315711 81.4166459,22.4637232 84.0753415,19.2190844 C79.9325802,21.1546049 75.1211778,28.1591192 73.8275341,32.1179223 C73.6313417,32.6717378 73.3184797,32.9086956 72.8887679,32.9086956 C71.9909351,32.9061358 69.6883792,31.3600598 69.6907234,29.5772088 C69.6966741,24.1125541 75.1386692,13.6631936 78.1848809,13.6666675 C79.1620561,13.6677646 80.9180503,14.8190939 80.9158864,16.0865252 C80.9158864,16.5220447 80.6800227,16.9968744 80.0937897,17.4312969 C76.1452372,21.3871745 72.8572112,27.164299 72.8546866,29.2643735 C73.7141104,28.5127274 80.4859942,16.3231173 85.5660792,14.547397 C86.9720647,14.6680699 88.4557698,15.264121 88.4536059,16.3728491 C88.4536059,16.7291999 88.2972651,17.2043952 87.9048802,17.6792249 C85.3630345,20.9229495 82.6228325,25.4735983 82.6181441,29.3164822 C82.6168818,30.9395329 83.12251,32.4062574 84.2937138,33.6352928 C84.4487923,33.7941788 84.5272332,33.9526991 84.5272332,34.0713608 L84.5272332,34.0713608 Z" id="Shape" sketch:type="MSShapeGroup"></path>
            <path d="M90.7351175,14.6133041 C90.7364279,14.2469297 90.4539543,13.9210966 90.4539543,13.6369312 C90.4539543,12.7423918 93.6585032,12.298876 94.3469973,12.3000021 C95.5227536,12.3011283 96.4959675,12.7089827 96.4948444,13.8876875 C96.4924109,15.8802241 89.6284353,25.3034809 89.6237555,29.0026995 C89.6226323,30.2630503 90.0273426,31.3616107 90.9983102,32.2572761 C91.1606061,32.4201927 91.2420349,32.5829215 91.2420349,32.7058597 C91.2394142,33.4774608 90.3062594,34.1677914 89.2128679,34.1666653 C87.6713374,34.1640376 85.7683382,32.7398319 85.7732052,28.1047817 C85.7776978,24.608458 90.7339944,16.158008 90.7351175,14.6133041 L90.7351175,14.6133041 Z M95.8498374,5.46666869 C97.7469644,5.46867796 99.1766185,7.42932489 99.1752568,8.5603437 C99.1740895,9.69216622 97.6537811,12.3014059 96.5163219,12.2999994 C95.0841388,12.2979902 92.4728656,10.8585482 92.4742273,9.50932253 C92.4765618,7.98669675 94.207165,5.46405664 95.8498374,5.46666869 L95.8498374,5.46666869 Z" id="Shape" sketch:type="MSShapeGroup"></path>
            <path d="M107.310681,34.0713608 C107.308337,34.8632311 106.019481,35.5346114 104.574115,35.5333315 C102.738739,35.5309546 100.70971,34.4595254 100.712054,31.2512713 C100.717824,27.1315711 104.200513,22.4637232 106.858824,19.2190844 C102.716561,21.1547877 97.9055281,28.1591192 96.6118034,32.1179223 C96.4156261,32.6719207 96.1027881,32.9086956 95.6731093,32.9086956 C94.7742637,32.9074157 92.4718846,31.3600598 92.4742286,29.5772088 C92.4812607,24.1125541 97.921756,13.6631936 100.968816,13.6666675 C101.944834,13.6679474 103.700693,14.8192767 103.699792,16.0865252 C103.69853,16.5222276 103.463766,16.9968744 102.877758,17.4312969 C98.9282467,21.3871745 95.6404732,27.1644819 95.6383094,29.2645563 C96.4974868,28.5127274 103.268851,16.3231173 108.349808,14.547397 C109.755505,14.6682527 111.238375,15.2643038 111.237113,16.3728491 C111.23585,16.7291999 111.079522,17.2045781 110.688249,17.6792249 C108.146598,20.9229495 105.406607,25.4735983 105.401919,29.3164822 C105.400837,30.9397158 105.906426,32.4062574 107.07736,33.6352928 C107.231344,33.7941788 107.310681,33.952882 107.310681,34.0713608 L107.310681,34.0713608 Z" id="Shape" sketch:type="MSShapeGroup"></path>
            <path d="M113.119774,30.7644168 C112.537204,31.1671152 111.994331,31.3683713 111.569473,31.3683713 C109.865215,31.365951 108.2779,30.2340018 108.280045,28.3391041 C108.28684,22.2900647 114.033146,10.9247741 120.809589,10.9333382 C123.056721,10.936317 123.790924,12.4702198 123.789672,13.9216467 C123.787347,15.2524316 123.166869,16.5012992 122.507947,16.5007406 C122.120282,16.5001821 121.386258,16.095622 120.223801,16.0945049 C114.569046,16.0872441 111.111893,24.8745578 111.108317,27.7375699 C111.107244,28.2618411 111.223114,28.5839253 111.493836,28.5850424 C113.818751,28.5887659 117.970589,20.6489246 118.672248,16.8991569 C119.098357,16.7792597 119.524467,16.7396042 119.950397,16.7396042 C121.694173,16.7420245 123.203705,17.6310142 123.202632,18.4777419 C123.20138,18.638784 123.085689,18.8809988 122.891141,19.1630552 C120.563901,22.8698163 118.31212,27.2626354 115.749922,32.7438384 C119.351734,32.8294793 121.287554,33.1137698 127.17387,33.9685031 L129.032086,34.2529798 C129.730168,34.3337801 130.001247,34.4156975 129.999996,34.4953808 C129.999996,34.6567952 129.226633,34.9390378 128.140707,35.5826477 C126.39711,35.7416419 127.867482,36.4290031 125.660762,36.4263966 C125.350523,36.4263966 124.963931,36.4252796 124.498304,36.3841347 C121.206731,36.1782242 118.767197,35.2883037 114.779687,34.9196755 C112.681863,39.6353235 110.00737,41.0037159 107.68478,40.9999924 C105.244173,40.9975721 103.192483,39.5027663 103.195881,37.2437086 C103.199457,33.9381565 106.802342,32.7725095 112.303139,32.7388117 L113.119774,30.7644168 L113.119774,30.7644168 Z M111.237113,34.1680103 L111.066894,34.1666841 C107.962508,34.1628948 105.878847,34.7765657 105.876295,36.4178843 C105.873742,37.4015766 106.682234,38.2653387 107.701781,38.266665 C108.553465,38.2678018 109.532371,37.6937287 110.299044,36.0939025 L111.237113,34.1680103 L111.237113,34.1680103 Z" id="Shape" sketch:type="MSShapeGroup"></path>
        </g>
    </g>
</svg>