<?xml version="1.0" encoding="utf-8"?>
<!-- Generator: Adobe Illustrator 17.0.0, SVG Export Plug-In . SVG Version: 6.00 Build 0)  -->
<!DOCTYPE svg PUBLIC "-//W3C//DTD SVG 1.1//EN" "http://www.w3.org/Graphics/SVG/1.1/DTD/svg11.dtd">
<svg version="1.1" id="Logo" xmlns="http://www.w3.org/2000/svg" xmlns:xlink="http://www.w3.org/1999/xlink" x="0px" y="0px"
	 width="1020.473px" height="113.386px" viewBox="0 0 1020.473 113.386" enable-background="new 0 0 1020.473 113.386"
	 xml:space="preserve">
<polygon fill="#FFD404" points="22.99,2.891 10.919,2.891 10.919,71.341 55.269,71.341 55.269,59.318 22.99,59.318 "/>
<rect x="59.313" y="39.197" fill="#FFD404" width="28.234" height="10.513"/>
<polygon fill="#FFFFFF" points="99.627,71.341 143.976,71.341 143.976,59.318 111.697,59.318 111.697,42.418 135.895,42.418 
	135.895,30.301 111.697,30.301 111.697,14.96 143.976,14.96 143.976,2.058 99.627,2.058 "/>
<path fill="#FFFFFF" d="M297.712,56.797 M307.451,64.492 M297.712,56.797c0,0-3.977,2.433-6.418,2.977
	c-3.981,0.887-7.72,0.116-11.189-2.312c-2.415-1.692-4.191-3.926-5.296-6.66l39.995,1.379l0.202-1.014
	c1.087-5.433,0.65-10.748-1.298-15.796c-1.954-5.056-5.208-9.205-9.672-12.331c-6.098-4.27-12.916-5.758-20.223-4.432
	c-7.307,1.336-13.168,5.094-17.424,11.17c-4.296,6.14-5.789,12.922-4.441,20.161c1.345,7.235,5.135,13.079,11.264,17.368
	c4.662,3.267,9.701,4.921,14.976,4.921c1.747,0,3.55-0.181,5.358-0.542c5.422-1.077,10.081-3.491,13.907-7.194L297.712,56.797z
	 M275.23,38.668c0.328-0.727,0.689-1.375,1.083-1.935c2.379-3.401,5.527-5.426,9.621-6.193c4.031-0.753,7.768,0.059,11.147,2.426
	c2.396,1.681,4.17,3.914,5.289,6.658L275.23,38.668z"/>
<path fill="#FFFFFF" d="M871.644,56.797 M881.382,64.492 M871.644,56.797c0,0-3.976,2.433-6.418,2.977
	c-3.98,0.887-7.722,0.116-11.19-2.312c-2.414-1.692-4.191-3.926-5.296-6.66l39.996,1.379l0.198-1.014
	c1.088-5.433,0.65-10.748-1.296-15.796c-1.955-5.056-5.207-9.205-9.674-12.331c-6.096-4.27-12.915-5.758-20.224-4.432
	c-7.306,1.336-13.168,5.094-17.422,11.17c-4.296,6.14-5.792,12.922-4.443,20.161c1.348,7.235,5.137,13.079,11.265,17.368
	c4.662,3.267,9.701,4.921,14.978,4.921c1.747,0,3.549-0.181,5.357-0.542c5.424-1.077,10.081-3.491,13.906-7.194L871.644,56.797z
	 M849.163,38.668c0.327-0.727,0.688-1.375,1.082-1.935c2.379-3.401,5.526-5.426,9.623-6.193c4.03-0.753,7.767,0.059,11.146,2.426
	c2.395,1.681,4.168,3.914,5.288,6.658L849.163,38.668z"/>
<polygon fill="#FFFFFF" points="371.708,2.058 359.59,2.058 359.59,18.191 351.556,18.191 351.556,30.308 359.59,30.308 
	359.59,71.341 371.708,71.341 371.708,30.308 379.79,30.308 379.79,18.191 371.708,18.191 "/>
<rect x="380.958" y="39.197" fill="#FFFFFF" width="28.234" height="10.513"/>
<path fill="#FFFFFF" d="M441.562,30.541c4.034-0.753,7.769,0.059,11.146,2.426c1.735,1.218,3.284,2.955,4.603,5.167l0.624,1.047
	l10.445-6.259l-0.646-1.049c-2.288-3.712-4.992-6.674-8.034-8.806c-6.069-4.251-12.882-5.758-20.262-4.457
	c-7.304,1.336-13.175,5.106-17.451,11.208c-4.278,6.112-5.763,12.881-4.414,20.121c1.342,7.232,5.132,13.076,11.263,17.37
	c4.664,3.267,9.704,4.921,14.98,4.921c1.746,0,3.548-0.181,5.356-0.542c7.301-1.454,13.215-5.323,17.575-11.502l0.707-0.997
	l-10.003-7l-0.699,0.983c-2.52,3.548-5.745,5.7-9.869,6.578c-3.983,0.885-7.71,0.121-11.151-2.286
	c-3.449-2.417-5.485-5.571-6.225-9.644c-0.739-4.066,0.057-7.69,2.434-11.084C434.32,33.334,437.467,31.31,441.562,30.541z"/>
<path fill="#FFFFFF" d="M502.308,18.2c-7.389,0-13.814,2.68-19.1,7.966c-5.253,5.255-7.919,11.667-7.919,19.055
	c0,7.389,2.666,13.8,7.921,19.057c5.251,5.22,11.678,7.866,19.098,7.866c7.387,0,13.814-2.646,19.103-7.868
	c5.283-5.285,7.963-11.697,7.963-19.055c0-7.358-2.68-13.769-7.963-19.055C516.125,20.88,509.7,18.2,502.308,18.2z M491.779,34.737
	c2.972-2.972,6.414-4.417,10.529-4.417c4.116,0,7.558,1.445,10.532,4.417c2.972,2.974,4.417,6.404,4.417,10.484
	c0,4.113-1.442,7.558-4.417,10.529c-2.941,2.941-6.387,4.373-10.532,4.373c-4.144,0-7.59-1.429-10.529-4.373
	c-2.941-2.938-4.37-6.383-4.37-10.529C487.409,41.105,488.838,37.676,491.779,34.737z"/>
<path fill="#FFFFFF" d="M584.045,18.2c-5.819,0-10.7,1.97-14.517,5.858c-3.869-3.888-8.739-5.858-14.5-5.858
	c-5.809,0-10.75,2.151-14.69,6.39c-3.917,4.216-5.903,9.264-5.903,15.006v31.745h12.12V39.596c0-2.492,0.8-4.628,2.444-6.529
	c1.598-1.849,3.572-2.747,6.029-2.747c2.646,0,4.649,0.821,6.136,2.528c1.54,1.707,2.288,3.914,2.288,6.748v31.745h12.119V39.596
	c0-2.81,0.736-5.022,2.238-6.748c1.538-1.702,3.577-2.528,6.235-2.528c2.424,0,4.382,0.9,5.981,2.747
	c1.676,1.932,2.49,4.068,2.49,6.529v31.745h12.119V39.596c0-5.708-2.001-10.757-5.948-15.006
	C594.745,20.351,589.818,18.2,584.045,18.2z"/>
<polygon fill="#FFFFFF" points="688.855,2.058 676.738,2.058 676.738,18.193 668.704,18.193 668.704,30.311 676.738,30.311 
	676.738,71.341 688.855,71.341 688.855,30.311 696.938,30.311 696.938,18.193 688.855,18.193 "/>
<rect x="816.671" y="2.058" fill="#FFFFFF" width="12.072" height="69.283"/>
<path fill="#FFD404" d="M892.631,71.341v-5.783h5.811v5.783H892.631z"/>
<path fill="#FFD404" d="M923.328,71.528c-4.191,0.882-8.099,0.089-11.721-2.384c-3.574-2.442-5.775-5.754-6.601-9.929
	c-0.829-4.175-0.026-8.044,2.406-11.602c2.431-3.558,5.757-5.747,9.975-6.568c4.248-0.8,8.146,0.01,11.689,2.431
	c1.771,1.21,3.337,2.891,4.697,5.039l-4.996,3.072c-0.871-1.422-1.875-2.523-3.019-3.304c-2.226-1.522-4.659-2.02-7.291-1.498
	c-2.635,0.522-4.705,1.887-6.217,4.099c-1.512,2.212-2.013,4.628-1.505,7.252c0.508,2.622,1.882,4.701,4.125,6.233
	c2.274,1.555,4.712,2.024,7.315,1.409c2.635-0.588,4.745-2.033,6.338-4.326l4.865,3.325
	C930.902,68.39,927.549,70.641,923.328,71.528z"/>
<path fill="#FFD404" d="M966.041,56.33c0,4.253-1.528,7.909-4.586,10.966c-3.057,3.02-6.722,4.528-10.994,4.528
	c-4.291,0-7.956-1.509-10.994-4.528c-3.038-3.038-4.558-6.693-4.558-10.966c0-4.272,1.52-7.928,4.558-10.966
	c3.057-3.057,6.722-4.586,10.994-4.586c4.273,0,7.938,1.529,10.994,4.586C964.513,48.421,966.041,52.076,966.041,56.33z
	 M960.202,56.33c0-2.639-0.959-4.918-2.877-6.836c-1.918-1.917-4.206-2.876-6.864-2.876s-4.946,0.959-6.864,2.876
	c-1.899,1.899-2.849,4.178-2.849,6.836c0,2.678,0.949,4.965,2.849,6.865c1.898,1.899,4.187,2.849,6.864,2.849
	c2.678,0,4.966-0.949,6.864-2.849C959.243,61.276,960.202,58.988,960.202,56.33z"/>
<path fill="#FFD404" d="M1003.715,71.341v-18.4c0-1.652-0.56-3.124-1.681-4.415c-1.102-1.272-2.487-1.908-4.158-1.908
	c-1.804,0-3.238,0.588-4.302,1.766c-1.024,1.178-1.537,2.696-1.537,4.558v18.4h-5.84v-18.4c0-1.88-0.521-3.399-1.566-4.558
	c-1.025-1.177-2.439-1.766-4.244-1.766c-1.689,0-3.085,0.636-4.187,1.908c-1.102,1.272-1.652,2.744-1.652,4.415v18.4h-5.839v-18.4
	c0-3.285,1.12-6.134,3.361-8.545c2.24-2.412,5.013-3.618,8.316-3.618c3.551,0,6.466,1.292,8.745,3.873
	c2.24-2.582,5.155-3.873,8.744-3.873c3.285,0,6.048,1.206,8.288,3.618c2.26,2.43,3.39,5.279,3.39,8.545v18.4H1003.715z"/>
<path fill="#FFFFFF" d="M345.492,18.2c-4.214,0.024-8.118,1.087-11.679,3.126v-3.133h-12.12v23.009v3.99v26.148h12.12V45.193v-3.99
	c0-3.164,1.105-5.696,3.39-7.754c2.277-2.105,4.992-3.128,8.297-3.128h1.215V18.193L345.492,18.2z"/>
<path fill="#FFFFFF" d="M249.617,26.166c-5.286-5.286-11.696-7.966-19.054-7.966c-5.532,0-10.522,1.503-14.9,4.477v-4.455h-12.119
	v27v42.283h12.119V66.812c4.556,3.542,9.827,5.333,15.704,5.333c7.211,0,13.452-2.684,18.551-7.979
	c5.085-5.283,7.664-11.659,7.664-18.944C257.582,37.866,254.902,31.455,249.617,26.166z M241.046,55.75
	c-2.941,2.941-6.369,4.373-10.483,4.373c-4.146,0-7.59-1.429-10.53-4.373c-2.941-2.938-4.37-6.383-4.37-10.529
	c0-4.116,1.429-7.545,4.37-10.484c2.972-2.972,6.416-4.417,10.53-4.417c4.081,0,7.51,1.445,10.483,4.417
	c2.972,2.974,4.417,6.404,4.417,10.484C245.463,49.334,244.019,52.779,241.046,55.75z"/>
<path fill="#FFFFFF" d="M658.726,26.166C653.44,20.88,647.028,18.2,639.67,18.2c-5.53,0-10.522,1.503-14.898,4.477v-4.455h-12.12v27
	v42.283h12.12V66.812c4.555,3.542,9.826,5.333,15.703,5.333c7.211,0,13.454-2.684,18.552-7.979
	c5.085-5.286,7.665-11.659,7.665-18.944C666.691,37.866,664.012,31.455,658.726,26.166z M650.154,55.75
	c-2.938,2.944-6.371,4.373-10.484,4.373c-4.147,0-7.588-1.429-10.529-4.373c-2.94-2.938-4.369-6.383-4.369-10.529
	c0-4.116,1.429-7.545,4.369-10.484c2.97-2.972,6.416-4.417,10.529-4.417c4.083,0,7.513,1.445,10.484,4.417
	c2.972,2.972,4.417,6.401,4.417,10.484C654.571,49.337,653.126,52.781,650.154,55.75z"/>
<path fill="#FFFFFF" d="M810.182,44.341c0-7.285-2.58-13.658-7.664-18.944c-5.099-5.295-11.341-7.98-18.552-7.98
	c-5.878,0-11.149,1.792-15.704,5.333V2.058h-12.119v42.283v27h12.119v-4.456c4.377,2.975,9.369,4.477,14.899,4.477
	c7.358,0,13.769-2.68,19.055-7.966C807.502,58.107,810.182,51.696,810.182,44.341z M798.062,44.341
	c0,4.083-1.445,7.512-4.418,10.484c-2.972,2.972-6.401,4.418-10.483,4.418c-4.113,0-7.56-1.446-10.529-4.418
	c-2.941-2.938-4.37-6.368-4.37-10.484c0-4.146,1.429-7.591,4.37-10.529c2.94-2.943,6.382-4.372,10.529-4.372
	c4.113,0,7.545,1.429,10.483,4.372C796.617,36.781,798.062,40.225,798.062,44.341z"/>
<path fill="#FFFFFF" d="M737.234,19.644c-4.795-2.979-15.495-6.644-33.313,2.184l5.379,10.861
	c9.176-4.543,17.027-5.547,21.542-2.749c2.201,1.365,3.514,3.698,3.514,6.24v0.404c-8.937-0.771-23.083-0.539-29.77,7.417
	c-2.771,3.297-5.348,9.195-1.89,18.576l0.149,0.37c2.494,5.6,8.351,8.676,15.955,8.676c2.172,0,4.488-0.252,6.907-0.767
	c2.915-0.62,5.889-1.626,8.647-2.961v3.445h12.119V36.18C746.475,29.416,743.019,23.235,737.234,19.644z M721.082,59.356
	c-3.916,0.468-6.53-0.271-7.111-1.239c-1.068-3.005-1.104-5.132-0.109-6.318c2.716-3.235,12.383-3.789,20.494-3.029v3.976
	C734.072,54.267,728.635,58.44,721.082,59.356z"/>
<polygon fill="#FFD404" points="148.128,18.193 172.494,56.23 208.903,2.058 194.571,2.058 172.384,33.304 162.458,18.193 "/>
<g>
	<polygon fill="#FFFFFF" points="148.437,71.341 162.76,71.341 172.494,56.23 165.43,45.202 	"/>
	<polygon fill="#FFFFFF" points="172.494,56.23 182.421,71.341 196.749,71.341 179.76,45.418 	"/>
</g>
</svg>
