<?xml version="1.0" encoding="UTF-8" standalone="no"?>
<svg width="94px" height="45px" viewBox="0 0 94 45" version="1.1" xmlns="http://www.w3.org/2000/svg" xmlns:xlink="http://www.w3.org/1999/xlink" xmlns:sketch="http://www.bohemiancoding.com/sketch/ns">
    <!-- Generator: Sketch 3.0.3 (7891) - http://www.bohemiancoding.com/sketch -->
    <title>liive</title>
    <desc>Created with Sketch.</desc>
    <defs></defs>
    <g id="Index" stroke="none" stroke-width="1" fill="none" fill-rule="evenodd" sketch:type="MSPage">
        <g id="Portfolio" sketch:type="MSArtboardGroup" transform="translate(-180.000000, -1388.000000)" fill="#FFFFFF">
            <path d="M183.7,1432 L183.7,1388.8 L180.1,1388.8 L180.1,1432 L183.7,1432 Z M195.7,1432 L195.7,1403.2 L192.1,1403.2 L192.1,1432 L195.7,1432 Z M195.7,1396 L195.7,1388.8 L192.1,1388.8 L192.1,1396 L195.7,1396 Z M209.5,1432 L209.5,1403.2 L205.9,1403.2 L205.9,1432 L209.5,1432 Z M209.5,1396 L209.5,1388.8 L205.9,1388.8 L205.9,1396 L209.5,1396 Z M241.3,1422.4 L241.3,1403.2 L237.64,1403.2 L237.64,1422.4 C237.64,1425.7 235,1428.4 231.7,1428.4 L221.56,1428.4 L221.56,1403.2 L217.9,1403.2 L217.9,1432 L231.7,1432 C236.98,1432 241.3,1427.74 241.3,1422.4 Z M272.5,1419.4 L272.5,1412.8 C272.5,1407.46 268.18,1403.2 262.9,1403.2 L258.7,1403.2 C253.42,1403.2 249.1,1407.46 249.1,1412.8 L249.1,1422.4 C249.1,1427.74 253.42,1432 258.7,1432 L270.88,1432 L270.88,1428.4 L258.7,1428.4 C255.4,1428.4 252.76,1425.7 252.76,1422.4 L252.76,1419.4 L272.5,1419.4 Z M268.84,1415.8 L252.76,1415.8 L252.76,1412.8 C252.76,1409.5 255.4,1406.8 258.7,1406.8 L262.9,1406.8 C266.2,1406.8 268.84,1409.5 268.84,1412.8 L268.84,1415.8 Z" id="liive" sketch:type="MSShapeGroup"></path>
        </g>
    </g>
</svg>