<?xml version="1.0" encoding="utf-8"?>
<!-- Generator: Adobe Illustrator 17.0.0, SVG Export Plug-In . SVG Version: 6.00 Build 0)  -->
<!DOCTYPE svg PUBLIC "-//W3C//DTD SVG 1.1//EN" "http://www.w3.org/Graphics/SVG/1.1/DTD/svg11.dtd">
<svg version="1.1" id="Calque_1" xmlns="http://www.w3.org/2000/svg" xmlns:xlink="http://www.w3.org/1999/xlink" x="0px" y="0px"
	 width="215.599px" height="100.8px" viewBox="0 0 215.599 100.8" enable-background="new 0 0 215.599 100.8" xml:space="preserve">
<g>
	<path fill="#FFFFFF" d="M0,100.8V0h8.4v100.8H0z"/>
	<path fill="#FFFFFF" d="M28,16.8V0h8.4v16.8H28z M28,100.8V33.6h8.4V100.8H28z"/>
	<path fill="#FFFFFF" d="M60.199,16.8V0h8.4v16.8H60.199z M60.199,100.8V33.6h8.4V100.8H60.199z"/>
	<path fill="#FFFFFF" d="M120.398,100.8h-32.2V33.6h8.54v58.8h23.66c7.7,0,13.859-6.3,13.859-13.999V33.6h8.54v44.801
		C142.798,90.86,132.718,100.8,120.398,100.8z"/>
	<path fill="#FFFFFF" d="M169.538,71.401v7c0,7.699,6.16,13.999,13.86,13.999h28.42v8.4h-28.42c-12.32,0-22.399-9.94-22.399-22.399
		V56c0-12.46,10.079-22.401,22.399-22.401h9.8c12.32,0,22.4,9.94,22.4,22.401v15.4H169.538z M207.059,56c0-7.701-6.16-14-13.86-14
		h-9.8c-7.7,0-13.86,6.3-13.86,14v7h37.521V56z"/>
</g>
</svg>
