<?xml version="1.0" encoding="UTF-8" standalone="no"?>
<svg width="25px" height="32px" viewBox="0 0 25 32" version="1.1" xmlns="http://www.w3.org/2000/svg" xmlns:xlink="http://www.w3.org/1999/xlink" xmlns:sketch="http://www.bohemiancoding.com/sketch/ns">
    <title>Shape</title>
    <description>Created with Sketch (http://www.bohemiancoding.com/sketch)</description>
    <defs></defs>
    <g id="Index" stroke="none" stroke-width="1" fill="none" fill-rule="evenodd" sketch:type="MSPage">
        <g id="Portfolio" sketch:type="MSArtboardGroup" transform="translate(-943.000000, -1570.000000)" fill="#000000">
            <g id="Whyd-copy-2" sketch:type="MSLayerGroup" transform="translate(869.000000, 1534.000000)">
                <path d="M84.2795661,57.1666169 C83.4352886,61.5722887 82.404608,65.7958841 79.3514537,68 C78.4072256,61.3402934 80.7356575,56.3400735 81.8158313,51.0316998 C79.9742972,47.9450416 82.0369439,41.732046 85.9202348,43.2651353 C90.7001888,45.1482976 81.780479,54.7417055 87.7681966,55.9397615 C94.0200923,57.1902965 96.5728507,45.1393378 92.6956661,41.2200562 C87.0945743,35.5600096 76.3921438,41.0917388 77.7072498,49.1930166 C78.0273489,51.1731369 80.0832466,51.7734449 78.5283876,54.5068302 C74.9443059,53.7138861 73.8750592,50.9001824 74.0113262,47.1469776 C74.2324389,41.0043806 79.5552116,36.7027067 84.8914825,36.1078386 C91.6431314,35.3545737 97.9792299,38.5753092 98.8530748,44.8987026 C99.8384402,52.0367996 95.8066696,59.7665649 88.5874061,59.210416 C86.6337087,59.059699 85.8132137,58.0949183 84.2795661,57.1666169 C84.2795661,57.1666169 85.8132137,58.0949183 84.2795661,57.1666169 L84.2795661,57.1666169 L84.2795661,57.1666169 Z" id="Shape" sketch:type="MSShapeGroup"></path>
            </g>
        </g>
    </g>
</svg>