<?xml version="1.0" encoding="utf-8"?>
<!-- Generator: Adobe Illustrator 17.0.0, SVG Export Plug-In . SVG Version: 6.00 Build 0)  -->
<!DOCTYPE svg PUBLIC "-//W3C//DTD SVG 1.1//EN" "http://www.w3.org/Graphics/SVG/1.1/DTD/svg11.dtd">
<svg version="1.1" id="Calque_1" xmlns="http://www.w3.org/2000/svg" xmlns:xlink="http://www.w3.org/1999/xlink" x="0px" y="0px"
	 width="566.93px" height="156.49px" viewBox="0 0 566.93 156.49" enable-background="new 0 0 566.93 156.49" xml:space="preserve">
<g>
	<g>
		<path fill="#FFFFFF" d="M93.473,0.591c-16.689,0-30.21,13.521-30.21,30.191c0,16.673,30.21,50.342,30.21,50.342
			s30.197-33.669,30.197-50.342C123.67,14.111,110.152,0.591,93.473,0.591L93.473,0.591z M93.473,45.88
			c-8.354,0-15.114-6.754-15.114-15.099c0-8.338,6.761-15.102,15.114-15.102c8.335,0,15.099,6.763,15.099,15.102
			C108.571,39.126,101.808,45.88,93.473,45.88L93.473,45.88z"/>
	</g>
	<g>
		<path fill="#FFFFFF" d="M481.308,131.283h6.005v5.929h-6.005V131.283z"/>
		<path fill="#FFFFFF" d="M490.429,127.392v-0.077c0-5.669,4.338-10.341,10.414-10.341c3.744,0,6.08,1.26,7.933,3.339l-3.446,3.703
			c-1.26-1.333-2.518-2.185-4.523-2.185c-2.815,0-4.82,2.482-4.82,5.412v0.071c0,3.041,1.968,5.488,5.043,5.488
			c1.891,0,3.19-0.814,4.558-2.113l3.298,3.335c-1.924,2.113-4.148,3.633-8.115,3.633
			C494.8,137.657,490.429,133.059,490.429,127.392z"/>
		<path fill="#FFFFFF" d="M511.034,127.392v-0.077c0-5.706,4.598-10.341,10.786-10.341c6.153,0,10.711,4.558,10.711,10.27v0.071
			c0,5.711-4.595,10.343-10.782,10.343C515.592,137.657,511.034,133.1,511.034,127.392z M526.975,127.392v-0.077
			c0-2.927-2.113-5.483-5.226-5.483c-3.227,0-5.155,2.482-5.155,5.412v0.071c0,2.93,2.113,5.488,5.227,5.488
			C525.044,132.803,526.975,130.318,526.975,127.392z"/>
		<path fill="#FFFFFF" d="M536.609,117.349h5.631v2.814c1.303-1.667,3.004-3.189,5.856-3.189c2.597,0,4.561,1.151,5.601,3.152
			c1.742-2.041,3.818-3.152,6.522-3.152c4.188,0,6.71,2.521,6.71,7.305v12.934h-5.637v-11.083c0-2.667-1.186-4.04-3.298-4.04
			c-2.113,0-3.41,1.373-3.41,4.04v11.083h-5.634v-11.083c0-2.667-1.186-4.04-3.299-4.04c-2.109,0-3.412,1.373-3.412,4.04v11.083
			h-5.631V117.349z"/>
	</g>
	<path fill="#FFFFFF" d="M4.687,38.124V19.538H0v-9.514h4.688V0h11.12v10.024h9.22v9.514h-9.22v16.754
		c0,2.562,1.098,3.806,3.586,3.806c2.048,0,3.877-0.514,5.488-1.389v8.926c-2.345,1.392-5.049,2.268-8.78,2.268
		C9.295,49.903,4.687,47.195,4.687,38.124z"/>
	<path fill="#FFFFFF" d="M33.221,10.024h11.122v7.902c2.269-5.411,5.922-8.926,12.51-8.632v11.634h-0.585
		c-7.389,0-11.925,4.464-11.925,13.83v14.486H33.221V10.024z"/>
	<path fill="#FFFFFF" d="M131.587,35.414V10.024h11.123v21.877c0,5.269,2.484,7.976,6.726,7.976c4.245,0,6.955-2.707,6.955-7.976
		V10.024h11.123v39.219h-11.123v-5.56c-2.562,3.292-5.856,6.293-11.491,6.293C136.488,49.977,131.587,44.417,131.587,35.414z"/>
	<path fill="#FFFFFF" d="M173.943,10.024h11.785l8.777,26.268l8.855-26.268h11.559l-15.438,39.513h-10.099L173.943,10.024z"/>
	<path fill="#FFFFFF" d="M217.263,29.854v-0.146c0-11.197,7.97-20.414,19.384-20.414c13.1,0,19.102,10.17,19.102,21.293
		c0,0.879-0.075,1.903-0.149,2.927h-27.295c1.099,5.046,4.613,7.683,9.589,7.683c3.731,0,6.439-1.173,9.514-4.025l6.364,5.634
		c-3.657,4.539-8.93,7.317-16.023,7.317C225.966,50.122,217.263,41.855,217.263,29.854z M244.92,26.562
		c-0.662-4.975-3.586-8.341-8.273-8.341c-4.607,0-7.608,3.292-8.483,8.341H244.92z"/>
	<path fill="#FFFFFF" d="M264.013,10.024h11.12v7.902c2.268-5.411,5.928-8.926,12.513-8.632v11.634h-0.584
		c-7.391,0-11.929,4.464-11.929,13.83v14.486h-11.12V10.024z"/>
	<path fill="#FFFFFF" d="M316.544,10.024h11.119v5.563c2.565-3.295,5.932-6.294,11.562-6.294c5.12,0,9,2.268,11.052,6.219
		c3.435-4.025,7.534-6.219,12.877-6.219c8.268,0,13.245,4.975,13.245,14.415v25.535h-11.122V27.366c0-5.269-2.343-7.977-6.517-7.977
		c-4.167,0-6.729,2.707-6.729,7.977v21.877h-11.119V27.366c0-5.269-2.343-7.977-6.513-7.977c-4.171,0-6.736,2.707-6.736,7.977
		v21.877h-11.119V10.024z"/>
	<path fill="#FFFFFF" d="M384.147,29.854v-0.146c0-11.268,9.071-20.414,21.292-20.414c12.147,0,21.147,9,21.147,20.269v0.145
		c0,11.269-9.074,20.414-21.292,20.414C393.147,50.122,384.147,41.122,384.147,29.854z M415.613,29.854v-0.146
		c0-5.779-4.174-10.829-10.318-10.829c-6.365,0-10.17,4.904-10.17,10.684v0.145c0,5.78,4.167,10.829,10.314,10.829
		C411.808,40.537,415.613,35.636,415.613,29.854z"/>
	<path fill="#FFFFFF" d="M434.632,10.024h11.119v5.563c2.562-3.295,5.855-6.294,11.488-6.294c8.416,0,13.319,5.56,13.319,14.561
		v25.389h-11.123V27.366c0-5.269-2.49-7.977-6.735-7.977c-4.241,0-6.949,2.707-6.949,7.977v21.877h-11.119V10.024z"/>
	<g>
		<path fill="#FFFFFF" d="M0.192,119.143v-0.177c0-13.443,10.278-24.516,24.692-24.516c8.874,0,14.412,2.986,18.806,7.908
			l-8.175,8.788c-2.985-3.162-5.974-5.183-10.717-5.183c-6.681,0-11.427,5.884-11.427,12.83v0.173
			c0,7.207,4.657,13.008,11.952,13.008c4.481,0,7.556-1.934,10.808-5.01l7.821,7.909c-4.569,5.009-9.842,8.61-19.244,8.61
			C10.56,143.483,0.192,132.589,0.192,119.143z"/>
		<path fill="#FFFFFF" d="M49.056,119.143v-0.177c0-13.532,10.896-24.516,25.571-24.516c14.588,0,25.398,10.807,25.398,24.343v0.173
			c0,13.533-10.896,24.518-25.571,24.518C59.869,143.483,49.056,132.676,49.056,119.143z M86.842,119.143v-0.177
			c0-6.942-5.006-13.003-12.388-13.003c-7.646,0-12.216,5.884-12.216,12.83v0.173c0,6.943,5.01,13.008,12.389,13.008
			C82.272,131.974,86.842,126.085,86.842,119.143z"/>
		<path fill="#FFFFFF" d="M109.697,95.329h13.356v6.677c3.076-3.954,7.119-7.556,13.886-7.556c6.151,0,10.808,2.723,13.271,7.469
			c4.13-4.833,9.05-7.469,15.467-7.469c9.929,0,15.906,5.975,15.906,17.311v30.671h-13.36v-26.274c0-6.33-2.809-9.582-7.821-9.582
			c-5.006,0-8.085,3.252-8.085,9.582v26.274H138.96v-26.274c0-6.33-2.812-9.582-7.821-9.582s-8.085,3.252-8.085,9.582v26.274
			h-13.356V95.329z"/>
		<path fill="#FFFFFF" d="M193.191,95.329h13.356v6.766c3.252-4.393,7.732-7.645,14.675-7.645c10.987,0,21.444,8.614,21.444,24.343
			v0.173c0,15.73-10.284,24.344-21.444,24.344c-7.116,0-11.51-3.252-14.675-7.029v20.21h-13.356V95.329z M229.308,118.966v-0.173
			c0-7.824-5.272-13.007-11.513-13.007c-6.237,0-11.42,5.183-11.42,13.007v0.173c0,7.822,5.183,13.008,11.42,13.008
			C224.035,131.974,229.308,126.878,229.308,118.966z"/>
		<path fill="#FFFFFF" d="M254.709,129.071v-22.32h-5.625V95.329h5.625V83.287h13.359v12.042h11.07v11.422h-11.07v20.127
			c0,3.075,1.318,4.566,4.304,4.566c2.463,0,4.657-0.612,6.591-1.668v10.721c-2.81,1.671-6.064,2.727-10.545,2.727
			C260.247,143.224,254.709,139.972,254.709,129.071z"/>
		<path fill="#FFFFFF" d="M286.177,128.895v-0.173c0-10.284,7.818-15.027,18.978-15.027c4.747,0,8.175,0.789,11.514,1.934v-0.792
			c0-5.535-3.429-8.61-10.105-8.61c-5.096,0-8.7,0.965-13.004,2.549l-3.339-10.197c5.183-2.28,10.278-3.775,18.276-3.775
			c7.293,0,12.564,1.931,15.903,5.272c3.518,3.515,5.099,8.7,5.099,15.024v27.333h-12.917v-5.097
			c-3.252,3.602-7.732,5.975-14.238,5.975C293.469,143.309,286.177,138.211,286.177,128.895z M316.844,125.823v-2.373
			c-2.283-1.056-5.272-1.758-8.523-1.758c-5.712,0-9.229,2.283-9.229,6.503v0.174c0,3.605,2.988,5.715,7.295,5.715
			C312.624,134.084,316.844,130.655,316.844,125.823z"/>
		<path fill="#FFFFFF" d="M354.374,136.28v6.151h-13.356V78.281h13.356v23.814c3.248-4.393,7.732-7.645,14.675-7.645
			c10.986,0,21.444,8.614,21.444,24.343v0.173c0,15.73-10.284,24.344-21.444,24.344C361.933,143.309,357.536,140.058,354.374,136.28
			z M377.133,118.966v-0.173c0-7.824-5.271-13.007-11.513-13.007c-6.237,0-11.423,5.183-11.423,13.007v0.173
			c0,7.822,5.185,13.008,11.423,13.008C371.861,131.974,377.133,126.878,377.133,118.966z"/>
		<path fill="#FFFFFF" d="M400.954,78.281h13.359v64.151h-13.359V78.281z"/>
		<path fill="#FFFFFF" d="M424.595,119.143v-0.177c0-13.443,9.579-24.516,23.288-24.516c15.73,0,22.936,12.215,22.936,25.572
			c0,1.056-0.089,2.286-0.176,3.519h-32.774c1.314,6.06,5.532,9.226,11.506,9.226c4.483,0,7.735-1.408,11.427-4.836l7.645,6.767
			c-4.392,5.448-10.721,8.787-19.244,8.787C435.053,143.483,424.595,133.555,424.595,119.143z M457.811,115.188
			c-0.789-5.978-4.304-10.018-9.929-10.018c-5.535,0-9.14,3.954-10.194,10.018H457.811z"/>
	</g>
	<polygon fill="#FFFFFF" points="78.457,67.653 0.192,67.653 0.192,64.395 76.084,64.395 	"/>
	<polygon fill="#FFFFFF" points="108.556,67.653 470.559,67.653 470.559,64.395 110.682,64.395 	"/>
</g>
</svg>
