<?xml version="1.0" encoding="UTF-8" standalone="no"?>
<svg width="180px" height="50px" viewBox="0 0 180 50" version="1.1" xmlns="http://www.w3.org/2000/svg" xmlns:xlink="http://www.w3.org/1999/xlink" xmlns:sketch="http://www.bohemiancoding.com/sketch/ns">
    <!-- Generator: Sketch 3.0.3 (7891) - http://www.bohemiancoding.com/sketch -->
    <title>tmc logo</title>
    <desc>Created with Sketch.</desc>
    <defs></defs>
    <g id="Index" stroke="none" stroke-width="1" fill="none" fill-rule="evenodd" sketch:type="MSPage">
        <g id="Portfolio" sketch:type="MSArtboardGroup" transform="translate(-656.000000, -1394.000000)" fill="#FFFFFF">
            <g id="Work" sketch:type="MSLayerGroup" transform="translate(145.000000, 1101.000000)">
                <g id="TMC" transform="translate(470.000000, 229.000000)" sketch:type="MSShapeGroup">
                    <g id="tmc-logo" transform="translate(41.000000, 64.000000)">
                        <path d="M29.6829116,0 C24.3925214,0 20.106383,4.35878412 20.106383,9.73271588 C20.106383,15.1076147 29.6829116,25.9615385 29.6829116,25.9615385 C29.6829116,25.9615385 39.2553191,15.1076147 39.2553191,9.73271588 C39.2553191,4.35846175 34.9701317,0 29.6829116,0 L29.6829116,0 L29.6829116,0 Z M29.6832278,14.4230769 C27.0358539,14.4230769 24.893617,12.2727406 24.893617,9.61586218 C24.893617,6.96121244 27.0361708,4.80769231 29.6832278,4.80769231 C32.3245806,4.80769231 34.4680851,6.96089406 34.4680851,9.61586218 C34.4677682,12.2727406 32.3245806,14.4230769 29.6832278,14.4230769 L29.6832278,14.4230769 L29.6832278,14.4230769 Z" id="Shape"></path>
                        <g id="Group" transform="translate(152.234043, 37.500000)">
                            <path d="M0,4.80769231 L1.91489362,4.80769231 L1.91489362,6.73076923 L0,6.73076923 L0,4.80769231 L0,4.80769231 Z" id="Shape"></path>
                            <path d="M2.87234043,3.39027964 L2.87234043,3.3652219 C2.87234043,1.52038649 4.22252873,0 6.11366385,0 C7.27897159,0 8.00604395,0.410035741 8.58278414,1.08659471 L7.51022791,2.2916442 C7.11805704,1.85785242 6.72650865,1.58059015 6.10245896,1.58059015 C5.22629943,1.58059015 4.60224974,2.38829548 4.60224974,3.34179129 L4.60224974,3.36489648 C4.60224974,4.35451448 5.2147833,5.15082993 6.17186698,5.15082993 C6.76043455,5.15082993 7.16474405,4.88593382 7.59052957,4.4632065 L8.61702128,5.54849951 C8.01818257,6.23612294 7.32596985,6.73076923 6.09125408,6.73076923 C4.23279987,6.73076923 2.87234043,5.2344642 2.87234043,3.39027964 L2.87234043,3.39027964 Z" id="Shape"></path>
                            <path d="M9.57446809,3.39011573 L9.57446809,3.36505921 C9.57446809,1.50827284 11.0079882,0 12.9372233,0 C14.8555464,0 16.2765957,1.48321631 16.2765957,3.34195513 L16.2765957,3.36505921 C16.2765957,5.22347262 14.8440109,6.73076923 12.9150876,6.73076923 C10.9955174,6.73044382 9.57446809,5.24755292 9.57446809,3.39011573 L9.57446809,3.39011573 Z M14.3617021,3.87227165 L14.3617021,3.84527741 C14.3617021,2.81914558 13.7770518,1.92307692 12.9157093,1.92307692 C12.022824,1.92307692 11.4893617,2.79320306 11.4893617,3.82038661 L11.4893617,3.84527741 C11.4893617,4.87246096 12.0740121,5.76923077 12.9356312,5.76923077 C13.8274097,5.76923077 14.3617021,4.89805291 14.3617021,3.87227165 L14.3617021,3.87227165 Z" id="Shape"></path>
                            <path d="M18.1918051,0.124711619 L19.9699071,0.124711619 L19.9699071,1.06054761 C20.3813557,0.506162892 20.9184808,0 21.8190574,0 C22.6391126,0 23.2592852,0.38278153 23.5876862,1.04824273 C24.1377579,0.369478957 24.7932968,0 25.6471394,0 C26.969585,0 27.7659574,0.838394646 27.7659574,2.42938234 L27.7659574,6.73076923 L25.9859609,6.73076923 L25.9859609,3.0449589 C25.9859609,2.15800986 25.6114574,1.70139905 24.9445508,1.70139905 C24.2773283,1.70139905 23.8677744,2.15800986 23.8677744,3.0449589 L23.8677744,6.73076923 L22.0887251,6.73076923 L22.0887251,3.0449589 C22.0887251,2.15800986 21.7142217,1.70139905 21.0469992,1.70139905 C20.3810399,1.70139905 19.9695913,2.15800986 19.9695913,3.0449589 L19.9695913,6.73076923 L18.1914894,6.73076923 L18.1914894,0.124711619 L18.1918051,0.124711619 Z" id="Shape"></path>
                        </g>
                        <path d="M1.43441048,12.4878418 L1.43441048,6.39983876 L0,6.39983876 L0,3.28344681 L1.43471652,3.28344681 L1.43471652,0 L4.8378837,0 L4.8378837,3.28344681 L7.65957447,3.28344681 L7.65957447,6.39983876 L4.8378837,6.39983876 L4.8378837,11.8877546 C4.8378837,12.7269595 5.17391585,13.1344424 5.9353439,13.1344424 C6.56211426,13.1344424 7.12186181,12.9660773 7.6148926,12.6794635 L7.6148926,15.6032511 C6.8972283,16.0592126 6.06969556,16.3461538 4.92785952,16.3461538 C2.84464379,16.3461538 1.43441048,15.4591253 1.43441048,12.4878418 L1.43441048,12.4878418 Z" id="Shape"></path>
                        <path d="M10.5319149,3.11828584 L14.1367637,3.11828584 L14.1367637,5.58969166 C14.8721892,3.89736353 16.056195,2.79802267 18.1914894,2.88997323 L18.1914894,6.52858817 L18.0018799,6.52858817 C15.6069664,6.52858817 14.1367637,7.92473542 14.1367637,10.8540175 L14.1367637,15.3846154 L10.5319149,15.3846154 L10.5319149,3.11828584 L10.5319149,3.11828584 Z" id="Shape"></path>
                        <path d="M42.1276596,10.8285231 L42.1276596,2.88461538 L45.6847662,2.88461538 L45.6847662,9.72939162 C45.6847662,11.3779324 46.479143,12.2248862 47.8357236,12.2248862 C49.1932636,12.2248862 50.0599146,11.3779324 50.0599146,9.72939162 L50.0599146,2.88461538 L53.6170213,2.88461538 L53.6170213,15.1552777 L50.0599146,15.1552777 L50.0599146,13.4156902 C49.2405937,14.4456762 48.187181,15.3846154 46.3851226,15.3846154 C43.6949867,15.3849283 42.1276596,13.6453408 42.1276596,10.8285231 L42.1276596,10.8285231 Z" id="Shape"></path>
                        <path d="M55.5319149,2.88461538 L59.3870776,2.88461538 L62.2582498,11.1945387 L65.1549376,2.88461538 L68.9361702,2.88461538 L63.8860215,15.3846154 L60.5823907,15.3846154 L55.5319149,2.88461538 L55.5319149,2.88461538 Z" id="Shape"></path>
                        <path d="M68.9361702,9.66335674 L68.9361702,9.61521976 C68.9361702,5.92350931 71.5137585,2.88461538 75.2051755,2.88461538 C79.4418639,2.88461538 81.3829787,6.23771848 81.3829787,9.90503074 C81.3829787,10.1948417 81.3587229,10.53246 81.3347904,10.8700782 L72.5072781,10.8700782 C72.8627072,12.5337712 73.9991746,13.4032042 75.6084694,13.4032042 C76.8151171,13.4032042 77.690915,13.0164598 78.6854048,12.0761403 L80.7435945,13.9337 C79.5608793,15.4302325 77.8555313,16.3461538 75.5615748,16.3461538 C71.750819,16.3458241 68.9361702,13.6201503 68.9361702,9.66335674 L68.9361702,9.66335674 Z M78.5106383,8.65384615 C78.2836761,6.93331366 77.2812025,5.76923077 75.6742964,5.76923077 C74.0948177,5.76923077 73.0659453,6.90772182 72.7659574,8.65384615 L78.5106383,8.65384615 L78.5106383,8.65384615 Z" id="Shape"></path>
                        <path d="M84.2553191,3.11828584 L87.8593672,3.11828584 L87.8593672,5.58969166 C88.5944375,3.89736353 89.7806619,2.79802267 91.9148936,2.88997323 L91.9148936,6.52858817 L91.7256163,6.52858817 C89.3301559,6.52858817 87.8593672,7.92473542 87.8593672,10.8540175 L87.8593672,15.3846154 L84.2553191,15.3846154 L84.2553191,3.11828584 L84.2553191,3.11828584 Z" id="Shape"></path>
                        <path d="M100.531915,3.11333879 L104.089129,3.11333879 L104.089129,4.85395206 C104.909729,3.82297584 105.986906,2.88461538 107.788068,2.88461538 C109.426069,2.88461538 110.667366,3.59425243 111.323846,4.83048522 C112.422779,3.57109849 113.734139,2.88461538 115.443483,2.88461538 C118.088599,2.88461538 119.680851,4.44124868 119.680851,7.39494079 L119.680851,15.3846154 L116.122678,15.3846154 L116.122678,8.53949649 C116.122678,6.89087321 115.3731,6.04356407 114.037745,6.04356407 C112.70463,6.04356407 111.88499,6.89056032 111.88499,8.53949649 L111.88499,15.3846154 L108.327776,15.3846154 L108.327776,8.53949649 C108.327776,6.89087321 107.578199,6.04356407 106.244124,6.04356407 C104.909729,6.04356407 104.089129,6.89056032 104.089129,8.53949649 L104.089129,15.3846154 L100.531915,15.3846154 L100.531915,3.11333879 L100.531915,3.11333879 Z" id="Shape"></path>
                        <path d="M121.595745,9.66352277 L121.595745,9.61538462 C121.595745,5.90017409 124.460798,2.88461538 128.320771,2.88461538 C132.157372,2.88461538 135,5.85203593 135,9.56757617 L135,9.61538462 C135,13.3309249 132.133999,16.3461538 128.274973,16.3461538 C124.438373,16.3461538 121.595745,13.3787333 121.595745,9.66352277 L121.595745,9.66352277 Z M132.12766,9.17998856 L132.12766,9.13461538 C132.12766,7.33864552 130.762242,5.76923077 128.752389,5.76923077 C126.670241,5.76923077 125.425532,7.29327234 125.425532,9.08955298 L125.425532,9.13461538 C125.425532,10.930896 126.78866,12.5 128.799494,12.5 C130.882951,12.5 132.12766,10.9768908 132.12766,9.17998856 L132.12766,9.17998856 Z" id="Shape"></path>
                        <path d="M137.87234,3.11333879 L141.428267,3.11333879 L141.428267,4.85395206 C142.247611,3.82297584 143.300733,2.88461538 145.102202,2.88461538 C147.793692,2.88461538 149.361702,4.62428998 149.361702,7.44062289 L149.361702,15.3846154 L145.804496,15.3846154 L145.804496,8.53949649 C145.804496,6.89087321 145.008179,6.04356407 143.650601,6.04356407 C142.294302,6.04356407 141.428267,6.89056032 141.428267,8.53949649 L141.428267,15.3846154 L137.87234,15.3846154 L137.87234,3.11333879 L137.87234,3.11333879 Z" id="Shape"></path>
                        <g id="Group" transform="translate(0.000000, 25.000000)">
                            <path d="M0,12.5553787 L0,12.4998431 C0,8.2819616 3.37316212,4.80769231 8.10372827,4.80769231 C11.0161082,4.80769231 12.833638,5.74458097 14.2757157,7.28890982 L11.5927423,10.0462365 C10.6130878,9.05412603 9.63212056,8.42001619 8.07550371,8.42001619 C5.88284988,8.42001619 4.32524845,10.2661826 4.32524845,12.4455626 L4.32524845,12.4998431 C4.32524845,14.7611146 5.85364075,16.5812389 8.24780476,16.5812389 C9.71843518,16.5812389 10.727627,15.9744262 11.7949089,15.0092991 L14.3617021,17.4908304 C12.8621908,19.0624564 11.1316319,20.1923077 8.04596639,20.1923077 C3.40269944,20.1923077 0,16.7742015 0,12.5553787 L0,12.5553787 Z" id="Shape"></path>
                            <path d="M15.3191489,12.5552207 L15.3191489,12.4996862 C15.3191489,8.25396664 18.7987108,4.80769231 23.48507,4.80769231 C28.1436463,4.80769231 31.5957447,8.19843217 31.5957447,12.4454068 L31.5957447,12.4996862 C31.5957447,16.7457196 28.1161828,20.1923077 23.4298236,20.1923077 C18.7722053,20.1919939 15.3191489,16.8012541 15.3191489,12.5552207 L15.3191489,12.5552207 Z M26.8085106,12.5516054 L26.8085106,12.4992607 C26.8085106,10.4462831 25.2500718,8.65384615 22.9519504,8.65384615 C20.571642,8.65384615 19.1489362,10.3939384 19.1489362,12.4480989 L19.1489362,12.4992607 C19.1489362,14.552534 20.7086203,16.3461538 23.0058077,16.3461538 C25.3858048,16.3461538 26.8085106,14.604583 26.8085106,12.5516054 L26.8085106,12.5516054 Z" id="Shape"></path>
                            <path d="M34.4680851,5.08952877 L38.737398,5.08952877 L38.737398,7.23039569 C39.720657,5.96261258 41.0130224,4.80769231 43.1761282,4.80769231 C45.1423264,4.80769231 46.63096,5.68077612 47.4182704,7.20250062 C48.7384458,5.65288105 50.3111487,4.80769231 52.3623752,4.80769231 C55.5362302,4.80769231 57.4468085,6.72347483 57.4468085,10.3581712 L57.4468085,20.1923077 L53.176217,20.1923077 L53.176217,11.7679947 C53.176217,9.73838747 52.2783059,8.69568877 50.6761948,8.69568877 C49.0760015,8.69568877 48.0917836,9.73838747 48.0917836,11.7679947 L48.0917836,20.1923077 L43.822151,20.1923077 L43.822151,11.7679947 C43.822151,9.73838747 42.923281,8.69568877 41.3221288,8.69568877 C39.7209767,8.69568877 38.7377177,9.73838747 38.7377177,11.7679947 L38.7377177,20.1923077 L34.4684048,20.1923077 L34.4684048,5.08952877 L34.4680851,5.08952877 Z" id="Shape"></path>
                            <path d="M61.2765957,5.09377794 L65.4120693,5.09377794 L65.4120693,7.2958887 C66.4189995,5.86611149 67.8061604,4.80769231 69.9559502,4.80769231 C73.3579005,4.80769231 76.5957447,7.61126637 76.5957447,12.7305392 L76.5957447,12.7868451 C76.5957447,17.9064434 73.4114672,20.7100174 69.9559502,20.7100174 C67.7525937,20.7100174 66.3920613,19.6515983 65.4120693,18.4223088 L65.4120693,25 L61.2765957,25 L61.2765957,5.09377794 L61.2765957,5.09377794 Z M71.8085106,13.009188 L71.8085106,12.95202 C71.8085106,10.3665728 70.2677782,8.65384615 68.4438573,8.65384615 C66.6211053,8.65384615 65.106383,10.3665728 65.106383,12.95202 L65.106383,13.009188 C65.106383,15.5939743 66.6211053,17.3076923 68.4438573,17.3076923 C70.267486,17.3076923 71.8085106,15.6237149 71.8085106,13.009188 L71.8085106,13.009188 Z" id="Shape"></path>
                            <path d="M80.3026255,16.6128602 L80.3026255,9.45149458 L78.5106383,9.45149458 L78.5106383,5.78674916 L80.3026255,5.78674916 L80.3026255,1.92307692 L84.5584756,1.92307692 L84.5584756,5.78674916 L88.0851064,5.78674916 L88.0851064,9.45149458 L84.5584756,9.45149458 L84.5584756,15.9092367 C84.5584756,16.8958496 84.9783581,17.3742365 85.9296245,17.3742365 C86.714276,17.3742365 87.4132307,17.1778765 88.0293557,16.8390592 L88.0293557,20.278889 C87.1341585,20.8150289 86.0975138,21.1538462 84.669977,21.1538462 C82.0668966,21.1538462 80.3026255,20.1104429 80.3026255,16.6128602 L80.3026255,16.6128602 Z" id="Shape"></path>
                            <path d="M90.9574468,16.5816274 L90.9574468,16.5267582 C90.9574468,13.2650561 93.3764133,11.760753 96.8294277,11.760753 C98.2981965,11.760753 99.3588536,12.0109944 100.391973,12.3741458 L100.391973,12.1229529 C100.391973,10.3674569 99.3310067,9.3921813 97.2653863,9.3921813 C95.6886335,9.3921813 94.5735202,9.69824339 93.24182,10.2006293 L92.2087004,6.9665203 C93.8123719,6.24338914 95.3888153,5.76923077 97.8634756,5.76923077 C100.120002,5.76923077 101.750901,6.38167211 102.784021,7.44131299 C103.872525,8.55614019 104.361702,10.2006293 104.361702,12.2063667 L104.361702,20.8753772 L100.365055,20.8753772 L100.365055,19.2587985 C99.3588536,20.4012189 97.9726973,21.1538462 95.9596765,21.1538462 C93.2136637,21.1532118 90.9574468,19.5363159 90.9574468,16.5816274 L90.9574468,16.5816274 Z M100.531915,15.7052317 L100.531915,14.9687143 C99.7931189,14.6409594 98.825856,14.4230769 97.7738079,14.4230769 C95.9253617,14.4230769 94.787234,15.1316606 94.787234,16.4414386 L94.787234,16.4954437 C94.787234,17.6143418 95.7541733,18.2692308 97.147951,18.2692308 C99.1662911,18.2692308 100.531915,17.2049585 100.531915,15.7052317 L100.531915,15.7052317 Z" id="Shape"></path>
                            <path d="M112.326963,18.8669966 L112.326963,20.8679086 L108.191489,20.8679086 L108.191489,0 L112.326963,0 L112.326963,7.74666214 C113.332655,6.31762515 114.721054,5.25975393 116.870844,5.25975393 C120.272484,5.25975393 123.510638,8.06187654 123.510638,13.1784991 L123.510638,13.2347757 C123.510638,18.3517236 120.326361,21.1538462 116.870844,21.1538462 C114.667487,21.1535209 113.306026,20.0959749 112.326963,18.8669966 L112.326963,18.8669966 Z M118.723404,13.009188 L118.723404,12.95202 C118.723404,10.3665728 117.183166,8.65384615 115.359191,8.65384615 C113.536677,8.65384615 112.021277,10.3665728 112.021277,12.95202 L112.021277,13.009188 C112.021277,15.5939743 113.536385,17.3076923 115.359191,17.3076923 C117.182873,17.3076923 118.723404,15.6237149 118.723404,13.009188 L118.723404,13.009188 Z" id="Shape"></path>
                            <path d="M127.340426,0 L131.170213,0 L131.170213,20.1923077 L127.340426,20.1923077 L127.340426,0 L127.340426,0 Z" id="Shape"></path>
                            <path d="M135,12.5550627 L135,12.4995294 C135,8.28181989 137.976176,4.80769231 142.235534,4.80769231 C147.122813,4.80769231 149.361702,8.64011969 149.361702,12.8308469 C149.361702,13.1621644 149.33405,13.548074 149.307019,13.9349248 L139.124205,13.9349248 C139.532462,15.8362355 140.842986,16.8295605 142.699095,16.8295605 C144.091954,16.8295605 145.102344,16.3878038 146.249441,15.3122769 L148.624727,17.4354072 C147.260141,19.1447043 145.293734,20.1923077 142.645655,20.1923077 C138.249279,20.1916802 135,17.0767937 135,12.5550627 L135,12.5550627 Z M145.531915,11.5384615 C145.269132,9.81713685 144.098433,8.65384615 142.224981,8.65384615 C140.381505,8.65384615 139.18083,9.79237373 138.829787,11.5384615 L145.531915,11.5384615 L145.531915,11.5384615 Z" id="Shape"></path>
                        </g>
                        <path d="M24.893617,21.1538462 L0,21.1538462 L0,20.1923077 L24.1388409,20.1923077 L24.893617,21.1538462 Z" id="Shape"></path>
                        <path d="M34.4680851,21.1538462 L149.361702,21.1538462 L149.361702,20.1923077 L35.1428415,20.1923077 L34.4680851,21.1538462 Z" id="Shape"></path>
                    </g>
                </g>
            </g>
        </g>
    </g>
</svg>