<?xml version="1.0" encoding="UTF-8" standalone="no"?>
<svg width="40px" height="32px" viewBox="0 0 40 32" version="1.1" xmlns="http://www.w3.org/2000/svg" xmlns:xlink="http://www.w3.org/1999/xlink" xmlns:sketch="http://www.bohemiancoding.com/sketch/ns">
    <title>Shape</title>
    <description>Created with Sketch (http://www.bohemiancoding.com/sketch)</description>
    <defs></defs>
    <g id="Index" stroke="none" stroke-width="1" fill="none" fill-rule="evenodd" sketch:type="MSPage">
        <g id="Portfolio" sketch:type="MSArtboardGroup" transform="translate(-612.000000, -1570.000000)" fill="#000000">
            <g id="Whyd-copy" sketch:type="MSLayerGroup" transform="translate(565.000000, 1534.000000)">
                <path d="M87,39.7876433 C85.5273753,40.4305453 83.9469233,40.8645684 82.2860357,41.0601784 C83.9799672,40.0602988 85.2821552,38.4770134 85.8952054,36.5906823 C84.309536,37.5160846 82.5525604,38.1885208 80.6842792,38.5510627 C79.1894803,36.9806182 77.0533701,36 74.696388,36 C70.1619909,36 66.4897771,39.6168591 66.4897771,44.0786506 C66.4897771,44.711708 66.5619518,45.3285002 66.6997793,45.9200385 C59.8792704,45.5857466 53.830509,42.366528 49.7869868,37.4784179 C49.0804574,38.6717674 48.6730617,40.0594428 48.6730617,41.5400008 C48.6730617,44.3427455 50.1217731,46.8150506 52.3235361,48.2643624 C50.9783041,48.2224154 49.713073,47.8598735 48.6065392,47.2550661 C48.6056696,47.2880245 48.6056696,47.3214109 48.6056696,47.3556533 C48.6056696,51.2704217 51.4352656,54.5354396 55.1887847,55.2780728 C54.5009511,55.4651222 53.7757258,55.5614291 53.0265872,55.5614291 C52.4974511,55.5614291 51.9848368,55.5113495 51.4804835,55.4167547 C52.5244079,58.6261286 55.5566147,60.9618919 59.1492625,61.0265245 C56.3392319,63.1936437 52.7996283,64.4854403 48.9574126,64.4854403 C48.296101,64.4854403 47.6426157,64.4469175 47,64.3707281 C50.6322134,66.6624042 54.9439994,68 59.5805715,68 C74.6768226,68 82.9299558,55.686414 82.9299558,45.0121855 C82.9299558,44.6646246 82.9216948,44.3140675 82.9056077,43.9686468 C84.507799,42.8313693 85.8991185,41.4090234 87,39.7876433 C87,39.7876433 85.8991185,41.4090234 87,39.7876433 L87,39.7876433 L87,39.7876433 Z" id="Shape" sketch:type="MSShapeGroup"></path>
            </g>
        </g>
    </g>
</svg>