<?xml version="1.0" encoding="utf-8"?>
<!-- Generator: Adobe Illustrator 17.0.0, SVG Export Plug-In . SVG Version: 6.00 Build 0)  -->
<!DOCTYPE svg PUBLIC "-//W3C//DTD SVG 1.1//EN" "http://www.w3.org/Graphics/SVG/1.1/DTD/svg11.dtd">
<svg version="1.1" id="Calque_1" xmlns="http://www.w3.org/2000/svg" xmlns:xlink="http://www.w3.org/1999/xlink" x="0px" y="0px"
	 width="420.047px" height="168.562px" viewBox="0 0 420.047 168.562" enable-background="new 0 0 420.047 168.562"
	 xml:space="preserve">
<g>
	<path fill="#212121" d="M77.739,135.853c-3.286-5.323-6.117-10.578-8.496-15.76c-2.379-5.184-4.645-11.653-6.797-19.414h-0.68
		c-2.606,8.553-4.957,15.109-7.052,19.668c-2.096,4.561-4.9,9.729-8.411,15.506h-21.92c-9.063-13.934-15.393-27.641-18.989-41.121
		C1.797,81.252,0,63.41,0,41.206h20.561V43.5c0,35.288,5.153,60.691,15.463,76.21h0.85c5.55-8.042,9.543-18.521,11.979-31.436
		c2.435-12.914,3.653-28.603,3.653-47.068h19.371v1.869c0,35.118,5.323,60.662,15.973,76.635h0.85
		c4.588-7.307,7.915-17.133,9.983-29.481c2.067-12.347,3.101-28.688,3.101-49.022h20.561c0,21.467-1.601,38.927-4.8,52.379
		c-3.201,13.453-9.163,27.541-17.884,42.268H77.739z"/>
	<path fill="#212121" d="M163.975,135.853h-20.9V0h20.9v31.436c0,8.78-0.539,19.796-1.614,33.05h0.68
		c3.171-8.836,7.009-15.221,11.512-19.158c4.503-3.937,10.351-5.905,17.544-5.905c7.25,0,12.872,2.408,16.865,7.222
		c3.993,4.814,5.99,11.697,5.99,20.646v36.533c0,7.137,0.623,11.937,1.869,14.401c1.245,2.463,3.682,3.695,7.307,3.695v13.594
		c-3.795,1.133-7.506,1.699-11.13,1.699c-6.062,0-10.734-2.082-14.019-6.244c-3.286-4.164-4.928-10.352-4.928-18.564V68.648
		c0-7.646-2.663-11.47-7.986-11.47c-4.078,0-7.846,2.875-11.3,8.623c-3.456,5.75-6.117,13.481-7.986,23.195
		c-1.869,9.715-2.804,19.867-2.804,30.458V135.853z"/>
	<path fill="#212121" d="M263.634,41.206v53.78c0,6.685,0.808,11.683,2.421,14.995c1.615,3.314,4.177,4.971,7.689,4.971
		c6.91,0,11.979-4.503,15.208-13.509s4.843-22.372,4.843-40.102V41.206h20.815v87.17c0,13.479-3.356,23.547-10.067,30.203
		c-6.713,6.655-17.319,9.983-31.818,9.983c-10.252,0-19.598-2.323-28.037-6.967v-17.757h0.68c5.381,2.662,9.303,4.432,11.768,5.311
		c2.463,0.877,5.012,1.571,7.646,2.081c2.633,0.51,5.508,0.765,8.623,0.765c13.934,0,20.9-7.363,20.9-22.09
		c0-6.173,0.283-11.895,0.85-17.162l-0.85-0.17c-3.229,7.137-6.996,12.334-11.3,15.59c-4.305,3.258-9.545,4.886-15.718,4.886
		c-7.761,0-13.778-2.889-18.055-8.666s-6.414-13.849-6.414-24.214V41.206H263.634z"/>
	<path fill="#212121" d="M335.851,94.816c0-11.157,1.728-20.929,5.183-29.312c3.454-8.382,8.255-14.826,14.401-19.328
		c6.145-4.504,12.956-6.755,20.433-6.755c5.551,0,10.251,0.595,14.104,1.784V0h20.9v102.463c0,4.872,0.269,8.681,0.808,11.427
		c0.537,2.748,1.387,4.716,2.549,5.905c1.16,1.189,3.101,1.784,5.819,1.784v13.764c-3.173,1.133-6.457,1.699-9.855,1.699
		c-5.212,0-9.36-1.797-12.446-5.395c-3.088-3.597-4.631-8.566-4.631-14.911h-0.68c-4.984,13.878-13.623,20.815-25.913,20.815
		c-9.516,0-17.007-3.809-22.472-11.428C338.583,118.507,335.851,108.07,335.851,94.816z M357.091,92.522
		c0,9.63,1.245,16.652,3.738,21.07c2.492,4.418,6.173,6.627,11.045,6.627c5.551,0,9.954-3.582,13.211-10.748
		c3.257-7.164,4.886-17.034,4.886-29.608v-21.75c-3.115-1.189-6.656-1.784-10.62-1.784c-7.081,0-12.561,3.201-16.439,9.601
		C359.03,72.331,357.091,81.194,357.091,92.522z"/>
</g>
</svg>
