<?xml version="1.0" encoding="utf-8"?>
<!-- Generator: Adobe Illustrator 17.0.0, SVG Export Plug-In . SVG Version: 6.00 Build 0)  -->
<!DOCTYPE svg PUBLIC "-//W3C//DTD SVG 1.1//EN" "http://www.w3.org/Graphics/SVG/1.1/DTD/svg11.dtd">
<svg version="1.1" id="Calque_1" xmlns:sketch="http://www.bohemiancoding.com/sketch/ns"
	 xmlns="http://www.w3.org/2000/svg" xmlns:xlink="http://www.w3.org/1999/xlink" x="0px" y="0px" width="169px" height="66px"
	 viewBox="-19.5 -10 169 66" enable-background="new -19.5 -10 169 66" xml:space="preserve">
<title>Untitled</title>
<description>Created with Sketch (http://www.bohemiancoding.com/sketch)</description>
<g id="Page-1" sketch:type="MSPage">
	
		<image overflow="visible" opacity="0.4" width="161" height="71" xlink:href="1D4AE260EBEDC47E.png"  transform="matrix(1 0 0 1 -15.5 -14)">
	</image>
	<g>
		<g>
			<g id="Cookening_9_" sketch:type="MSLayerGroup">
				<path id="Shape_116_" sketch:type="MSShapeGroup" fill="#FFFFFF" d="M15.995,19.566c-1.079-0.001-2.674-3.064-2.672-4.473
					c0.323-2.375,3.764-5.914,3.805-6.276c0-0.121-0.04-0.202-0.16-0.202C14.65,8.612,4.723,22.251,4.716,27.687
					c-0.001,0.966,1.037,1.33,2.396,1.331c1.839,0.002,4.237-0.6,5.756-1.16c0.241-0.12,0.56-0.201,0.84-0.2
					c0.559,0,1.238,0.525,1.238,1.088c-0.001,0.242-0.161,0.483-0.481,0.684c-2.159,1.206-6.239,3.375-9.556,3.37
					C1.353,32.796-0.003,30.821,0,27.882C0.011,18.459,12.783-0.007,18.457,0c2.079,0.002,3.035,1.494,3.912,3.669
					c0.558,1.128,1.756,1.854,1.754,3.344c-0.004,3.181-5.484,7.08-7.448,11.95C16.515,19.406,16.275,19.566,15.995,19.566
					L15.995,19.566z"/>
				<path id="Shape_115_" sketch:type="MSShapeGroup" fill="#FFFFFF" d="M27.517,14.208c2.002,0.002,3.412,1.706,3.41,3.044
					c-0.001,0.729-1.141,3.281-2.754,6.075l0.079,0.001c1.098,0.001,2.433-0.605,3.691-2.104c1.179-1.416,2.868-3.279,3.34-3.967
					c0.117-0.162,0.196-0.243,0.314-0.243c0.353,0.001,0.588,0.77,0.588,0.77c-0.708,1.175-1.887,2.997-3.027,4.657
					c-1.612,2.348-3.771,3.399-5.576,3.397c-0.314,0-0.588,0-0.863-0.082c-2.358,3.644-5.187,7.046-7.15,7.043
					c-2.511-0.004-3.49-1.667-3.487-4.098c0.007-5.998,5.944-16.405,8.926-16.402C25.911,12.301,26.499,13.558,27.517,14.208
					L27.517,14.208z M23.732,23.548c-0.176-0.438-0.28-0.955-0.28-1.511c0-0.835,0.177-1.79,0.672-2.903h-0.106
					c-1.513-0.002-5.25,5.84-5.255,10.415c0,0.358,0.14,0.517,0.351,0.518C20.065,30.067,22.39,26.57,23.732,23.548L23.732,23.548z"
					/>
				<path id="Shape_114_" sketch:type="MSShapeGroup" fill="#FFFFFF" d="M40.92,14.208c2.002,0.002,3.412,1.706,3.41,3.044
					c-0.001,0.729-1.141,3.281-2.753,6.076h0.079c1.098,0.002,2.433-0.605,3.691-2.103c1.179-1.416,2.868-3.279,3.34-3.967
					c0.117-0.162,0.196-0.244,0.314-0.243c0.353,0,0.588,0.77,0.588,0.77c-0.708,1.174-1.887,2.997-3.027,4.658
					c-1.612,2.349-3.771,3.4-5.576,3.397c-0.314-0.001-0.588-0.001-0.863-0.082c-2.358,3.644-5.187,7.045-7.15,7.042
					c-2.511-0.004-3.49-1.666-3.487-4.098c0.007-5.997,5.944-16.406,8.926-16.402C39.313,12.301,39.901,13.558,40.92,14.208
					L40.92,14.208z M37.134,23.549c-0.176-0.438-0.28-0.956-0.28-1.512c0-0.835,0.177-1.791,0.672-2.903H37.42
					c-1.513-0.002-5.25,5.84-5.255,10.416c0,0.357,0.14,0.516,0.351,0.517C33.467,30.068,35.793,26.569,37.134,23.549L37.134,23.549
					z"/>
				<path id="Shape_113_" sketch:type="MSShapeGroup" fill="#FFFFFF" d="M49.038,22.272c-1.133,2.543-2.346,5.564-3.597,9.22
					c-0.195,0.556-0.507,0.794-0.936,0.794c-0.585-0.001-2.96-1.197-2.959-2.707c0-0.2,0.04-0.398,0.118-0.597
					c2.462-6.04,10.348-16.685,10.356-23.166c0.001-0.994-0.154-1.869-0.582-2.624c-0.116-0.279-0.233-0.438-0.233-0.597
					c0.001-0.159,0.117-0.318,0.429-0.477c0.663-0.357,1.794-0.753,2.846-0.752c1.442,0.002,2.804,0.759,2.801,3.383
					c-0.004,3.141-2.736,7.868-5.197,11.881c1.951-2.224,4.253-4.089,6.006-4.087c1.559,0.002,2.22,0.996,2.219,2.228
					c-0.004,3.539-5.893,7.428-8.623,9.094c-1.014,0.477-1.171,1.351-1.171,1.908c-0.002,1.63,2.371,5.052,5.177,5.134
					c0.039,0.159,0.039,0.359,0.039,0.557c-0.001,1.153-0.627,2.703-2.342,2.701c-3.429-0.005-5.178-4.34-5.173-8.714
					c0.002-1.431,1.718-2.344,1.718-2.344c2.262-1.389,5.852-5.002,5.853-5.957c0.001-0.159-0.077-0.239-0.273-0.24
					C54.227,16.911,51.34,19.691,49.038,22.272L49.038,22.272z"/>
				<path id="Shape_112_" sketch:type="MSShapeGroup" fill="#FFFFFF" d="M59.956,27.206c-0.08,0.567-0.121,1.134-0.121,1.661
					c-0.001,0.892,0.397,1.418,1.274,1.42c2.751,0.004,5.904-2.95,8.579-6.068c1.157-1.336,5.069-6.235,5.789-7.246
					c0.119-0.162,0.2-0.244,0.319-0.244c0.359,0.001,0.596,0.771,0.596,0.771c-1.077,1.741-3.434,5.103-5.71,8.26
					c-2.755,3.806-6.586,7.043-9.097,7.04c-1.515-0.002-5.299-2.316-5.295-5.397c0.007-6.078,5.679-15.109,10.024-15.103
					c1.356,0.002,1.592,2.149,2.787,2.962c0.797,0.527,2.311,0.732,2.308,2.798C71.406,20.006,63.387,25.386,59.956,27.206
					L59.956,27.206z M68.351,17.841c-0.113-0.037-0.263-0.075-0.374-0.075c-2.617,0.626-5.126,3.617-6.327,6.833
					C66.215,21.536,67.639,19.246,68.351,17.841L68.351,17.841z"/>
				<path id="Shape_111_" sketch:type="MSShapeGroup" fill="#FFFFFF" d="M84.527,34.071c-0.001,0.792-1.29,1.463-2.736,1.462
					c-1.836-0.002-3.866-1.074-3.862-4.282c0.005-4.12,3.487-8.788,6.146-12.032c-4.143,1.936-8.954,8.94-10.248,12.899
					c-0.196,0.554-0.509,0.791-0.939,0.791c-0.898-0.003-3.2-1.549-3.198-3.331c0.006-5.465,5.448-15.914,8.494-15.911
					c0.977,0.001,2.733,1.152,2.731,2.42c0,0.436-0.236,0.91-0.822,1.345c-3.949,3.956-7.237,9.733-7.239,11.833
					c0.859-0.752,7.631-12.941,12.711-14.717c1.406,0.121,2.89,0.717,2.888,1.825c0,0.356-0.156,0.832-0.549,1.306
					c-2.542,3.244-5.282,7.794-5.287,11.637c-0.001,1.623,0.504,3.09,1.676,4.319C84.449,33.794,84.527,33.953,84.527,34.071
					L84.527,34.071z"/>
				<path id="Shape_110_" sketch:type="MSShapeGroup" fill="#FFFFFF" d="M90.735,14.613c0.001-0.366-0.281-0.692-0.281-0.976
					c0-0.895,3.205-1.338,3.893-1.337c1.176,0.001,2.149,0.409,2.148,1.588c-0.002,1.993-6.866,11.416-6.871,15.115
					c-0.001,1.26,0.404,2.359,1.375,3.255c0.162,0.163,0.244,0.326,0.244,0.449c-0.003,0.772-0.936,1.462-2.029,1.461
					c-1.542-0.003-3.445-1.427-3.44-6.062C85.778,24.608,90.734,16.158,90.735,14.613L90.735,14.613z M95.85,5.467
					c1.897,0.002,3.327,1.963,3.325,3.094c-0.001,1.132-1.521,3.741-2.659,3.74c-1.432-0.002-4.043-1.441-4.042-2.791
					C92.477,7.987,94.207,5.464,95.85,5.467L95.85,5.467z"/>
				<path id="Shape_109_" sketch:type="MSShapeGroup" fill="#FFFFFF" d="M107.311,34.071c-0.002,0.792-1.291,1.463-2.737,1.462
					c-1.835-0.002-3.864-1.074-3.862-4.282c0.006-4.12,3.488-8.788,6.147-12.032c-4.142,1.936-8.953,8.94-10.247,12.899
					c-0.196,0.554-0.509,0.791-0.939,0.791c-0.899-0.001-3.201-1.549-3.199-3.331c0.007-5.465,5.448-15.914,8.495-15.911
					c0.976,0.001,2.732,1.153,2.731,2.42c-0.001,0.436-0.236,0.91-0.822,1.345c-3.95,3.956-7.237,9.733-7.239,11.833
					c0.859-0.752,7.631-12.941,12.712-14.717c1.406,0.121,2.889,0.717,2.887,1.825c-0.001,0.356-0.158,0.832-0.549,1.306
					c-2.542,3.244-5.282,7.794-5.286,11.637c-0.001,1.623,0.505,3.09,1.675,4.319C107.231,33.794,107.311,33.953,107.311,34.071
					L107.311,34.071z"/>
				<path id="Shape_108_" sketch:type="MSShapeGroup" fill="#FFFFFF" d="M113.12,30.764c-0.583,0.403-1.125,0.604-1.55,0.604
					c-1.704-0.002-3.292-1.134-3.289-3.029c0.007-6.049,5.753-17.414,12.53-17.406c2.247,0.003,2.981,1.537,2.98,2.988
					c-0.002,1.331-0.623,2.58-1.282,2.579c-0.388-0.001-1.122-0.405-2.284-0.406c-5.655-0.007-9.112,8.78-9.115,11.643
					c-0.001,0.524,0.115,0.846,0.386,0.847c2.325,0.004,6.477-7.936,7.178-11.686c0.426-0.12,0.852-0.16,1.278-0.16
					c1.744,0.002,3.253,0.891,3.252,1.738c-0.001,0.161-0.117,0.403-0.311,0.685c-2.327,3.707-4.579,8.1-7.141,13.581
					c3.602,0.086,5.538,0.37,11.424,1.225l1.858,0.284c0.698,0.081,0.969,0.163,0.968,0.242c0,0.161-0.773,0.444-1.859,1.087
					c-1.744,0.159-0.273,0.846-2.48,0.844c-0.31,0-0.697-0.001-1.162-0.042c-3.292-0.206-5.731-1.096-9.719-1.464
					c-2.098,4.716-4.772,6.084-7.095,6.08c-2.441-0.002-4.492-1.497-4.489-3.756c0.004-3.306,3.606-4.471,9.107-4.505L113.12,30.764
					L113.12,30.764z M111.237,34.168l-0.17-0.001c-3.104-0.004-5.188,0.61-5.191,2.251c-0.003,0.984,0.806,1.847,1.825,1.849
					c0.852,0.001,1.831-0.573,2.597-2.173L111.237,34.168L111.237,34.168z"/>
			</g>
		</g>
	</g>
</g>
</svg>
